<?xml version="1.0" standalone="no"?>
<!DOCTYPE svg PUBLIC "-//W3C//DTD SVG 20010904//EN"
 "http://www.w3.org/TR/2001/REC-SVG-20010904/DTD/svg10.dtd">
<svg version="1.0" xmlns="http://www.w3.org/2000/svg"
 width="512.000000pt" height="512.000000pt" viewBox="0 0 512.000000 512.000000"
 preserveAspectRatio="xMidYMid meet">
<metadata>
Created by potrace 1.11, written by Peter Selinger 2001-2013
</metadata>
<g transform="translate(0.000000,512.000000) scale(0.100000,-0.100000)"
fill="#000000" stroke="none">
<path d="M2056 5086 c-29 -30 -37 -49 -56 -133 -12 -54 -26 -104 -30 -112 -4
-8 -44 -25 -90 -38 -642 -185 -1192 -639 -1500 -1236 -117 -229 -214 -531
-246 -767 -26 -195 -26 -557 0 -696 2 -11 7 -39 10 -64 4 -25 16 -83 28 -130
11 -47 21 -92 23 -100 2 -8 15 -51 29 -95 28 -87 30 -79 -31 -141 -23 -23 -22
-51 1 -66 16 -11 15 -106 -1 -112 -17 -7 -17 -62 0 -69 20 -8 22 -106 2 -113
-20 -8 -20 -63 0 -70 21 -8 21 -97 0 -114 -27 -23 -17 -53 31 -92 26 -21 55
-39 65 -39 11 -1 25 -2 32 -2 31 -3 77 14 97 35 28 30 40 60 47 122 10 95 13
95 82 -5 399 -575 1062 -968 1750 -1036 156 -16 519 -8 637 13 130 23 288 62
387 95 623 207 1125 639 1422 1224 40 77 74 149 77 160 4 11 24 70 47 130 57
156 87 277 118 480 24 160 24 492 -1 675 -15 117 -57 298 -93 405 -15 44 -28
82 -28 85 -11 43 -81 201 -133 300 -193 371 -467 675 -820 911 -261 173 -561
298 -865 359 -79 16 -106 25 -119 43 -16 21 -16 22 5 27 65 15 147 96 147 146
0 55 9 54 -510 54 l-479 0 -35 -34z"/>
</g>
</svg>
